<svg xmlns="http://www.w3.org/2000/svg" xmlns:xlink="http://www.w3.org/1999/xlink" width="148" height="82" viewBox="0 0 148 82"><svg width="16" height="16" viewBox="0 0 16 16"><path fill="#fe504f" d="M1.063.594c.64-.64 2.57-.748 2.585-.408s1.74 4.096 1.755 4.434c.015.338-1.137 1.494-1.474 1.832-.335.335 2.253 3.266 2.302 3.322.055.05 2.98 2.643 3.314 2.31.337-.34 1.49-1.493 1.826-1.478s4.087 1.744 4.425 1.76c.338.013.23 1.95-.408 2.59-.547.547-3.377 2.535-8.297-1.014-.54-.31-1.394-1.024-2.69-2.323 0-.002-.002-.003-.003-.003l-.003-.003-.003-.003h-.002c-1.295-1.3-2.007-2.157-2.317-2.698C-1.467 3.98.517 1.142 1.063.596z"/></svg><svg width="16" height="16" viewBox="0 0 16 16" x="66"><path fill="#fe504f" d="M8 0a5 5 0 0 0-5 5c0 5 5 11 5 11s5-6 5-11a5 5 0 0 0-5-5zm0 8.063a3.063 3.063 0 1 1 0-6.126 3.063 3.063 0 0 1 0 6.126zM6.063 5A1.938 1.938 0 1 1 9.94 5a1.938 1.938 0 0 1-3.877 0z"/></svg><svg width="16" height="16" viewBox="0 0 16 16" y="66"><path fill="#fe504f" d="M14 2.5H2a2 2 0 0 0-2 2V11a2 2 0 0 0 2 2h12a2 2 0 0 0 2-2V4.5a2 2 0 0 0-2-2zM1 5.125L4.5 7.75 1 10.375v-5.25zM15 11a1 1 0 0 1-1 1H2a1 1 0 0 1-1-1l3.916-2.938L7.1 9.702a1.5 1.5 0 0 0 1.8 0l2.183-1.64L15 11zm0-.625L11.5 7.75 15 5.125v5.25zM8.6 9.3c-.175.132-.382.2-.6.2s-.425-.068-.6-.2L1 4.5c0-.55.45-1 1-1h12c.55 0 1 .45 1 1L8.6 9.3z"/></svg></svg>