<svg xmlns="http://www.w3.org/2000/svg" xmlns:xlink="http://www.w3.org/1999/xlink" width="148" height="82" viewBox="0 0 148 82"><svg width="16" height="16" viewBox="0 0 16 16"><path fill="#fe504f" d="M1.063.594c.64-.64 2.57-.748 2.585-.408s1.74 4.096 1.755 4.434c.015.338-1.137 1.494-1.474 1.832-.335.335 2.253 3.266 2.302 3.322.055.05 2.98 2.643 3.314 2.31.337-.34 1.49-1.493 1.826-1.478s4.087 1.744 4.425 1.76c.338.013.23 1.95-.408 2.59-.547.547-3.377 2.535-8.297-1.014-.54-.31-1.394-1.024-2.69-2.323 0-.002-.002-.003-.003-.003l-.003-.003-.003-.003h-.002c-1.295-1.3-2.007-2.157-2.317-2.698C-1.467 3.98.517 1.142 1.063.596z"/></svg><svg width="16" height="16" viewBox="0 0 16 16" x="66"><path fill="#fe504f" d="M8 0C5.24 0 3 2.24 3 5c0 5 5 11 5 11s5-6 5-11c0-2.76-2.24-5-5-5zm0 8.063c-1.69 0-3.063-1.37-3.063-3.063S6.307 1.937 8 1.937 11.063 3.307 11.063 5 9.693 8.063 8 8.063zM6.063 5c0-1.07.867-1.938 1.938-1.938S9.94 3.93 9.94 5c0 1.07-.868 1.938-1.94 1.938S6.064 6.07 6.064 5z"/></svg><svg width="16" height="16" viewBox="0 0 16 16" y="66"><path fill="#fe504f" d="M14 2.5H2c-1.105 0-2 .896-2 2V11c0 1.104.895 2 2 2h12c1.104 0 2-.896 2-2V4.5c0-1.104-.896-2-2-2zM1 5.125L4.5 7.75 1 10.375v-5.25zM15 11c0 .552-.45 1-1 1H2c-.55 0-1-.448-1-1l3.916-2.938L7.1 9.702c.266.198.583.3.9.3s.633-.102.9-.3l2.183-1.64L15 11zm0-.625L11.5 7.75 15 5.125v5.25zM8.6 9.3c-.175.132-.382.2-.6.2s-.425-.068-.6-.2L1 4.5c0-.55.45-1 1-1h12c.55 0 1 .45 1 1L8.6 9.3z"/></svg></svg>