<svg xmlns="http://www.w3.org/2000/svg" xmlns:xlink="http://www.w3.org/1999/xlink" width="430" height="190" viewBox="0 0 430 190"><svg width="30" height="30" viewBox="0 0 30 30"><path fill="#fe504f" d="M5.623 4.688h-.925V26.25h18.75v-.902l-17.81-.046-.015-20.614zm1.887 18.75h4.688V13.243L7.51 17.93v5.51zm5.625 0h4.687V14.18l-1.875 1.875-2.813-2.813v10.195zm5.625 0h4.688V9.2l-4.688 4.688v9.55zm-6.21-13.063l3.394 3.375 6.7-6.668 1.72 1.73-.04-4.125-4.14.022 1.61 1.613-5.852 5.87-3.458-3.473-5.272 5.254.88.855 4.458-4.455z"/></svg><svg width="30" height="30" viewBox="0 0 30 30" x="80"><path fill="#fe504f" d="M26.364 3.36L24.35 5.14l-1.22.018-2.56 2.677a9.754 9.754 0 0 1 2.668 6.707c0 5.412-4.388 9.802-9.802 9.802s-9.8-4.39-9.8-9.802c0-5.413 4.387-9.802 9.8-9.802A9.75 9.75 0 0 1 19.9 7.185l2.47-2.47V3.627l1.897-2.19-.002 1.95 2.098-.026zM19.58 8.826l-2.492 2.493a5.106 5.106 0 0 1 1.372 3.47 5.134 5.134 0 1 1-5.134-5.135c1.154 0 2.208.396 3.067 1.04l2.518-2.52a8.36 8.36 0 0 0-5.472-2.034 8.402 8.402 0 1 0 8.4 8.403c0-2.21-.86-4.216-2.257-5.716zm-6.294 7.442a1.4 1.4 0 0 1 0-2.8c.097 0 .184.036.277.055l2.168-2.168a4.17 4.17 0 0 0-2.405-.765 4.2 4.2 0 1 0 4.2 4.2 4.17 4.17 0 0 0-1.1-2.81l-2.048 2.048c.18.236.308.52.308.84a1.4 1.4 0 0 1-1.4 1.4zM9.24 25.076c.277.14.563.267.857.38L8.44 28.33a.468.468 0 0 1-.81-.466l1.61-2.784zm4.688.734v1.308a.468.468 0 0 1-.934 0V25.81c.156.008.31.023.467.023s.312-.016.468-.023zm5.714 2.052a.468.468 0 0 1-.81.466l-1.657-2.872a9.4 9.4 0 0 0 .858-.38l1.61 2.783z"/></svg><svg width="22" height="30" viewBox="0 0 22 30" x="160"><path fill="#fe504f" d="M20.625 29.53a.47.47 0 0 0-.47-.468H3.282a.47.47 0 0 0 0 .938h16.876c.26 0 .47-.21.47-.47zM1.195 8.77C.8 9.03.207 9.822.77 10.95c.47.935 1.445 2.078 2.483 2.38.53.156 1.05.09 1.505-.184 1.03-.617 2.247-1.45 2.763-1.81.652.33 1.473.398 2.307.184.004 0 .007-.003.01-.004-.048 1.548-.572 2.514-3.134 4.894-2.284 2.12-3.638 4.904-3.625 7.45.01 1.67.618 3.102 1.763 4.142.088.08.2.123.317.123h13.125a.47.47 0 0 0 0-.938H5.344c-.862-.848-1.32-1.997-1.327-3.333-.012-2.252 1.263-4.842 3.325-6.758 2.733-2.537 3.44-3.74 3.44-5.847 0-.04-.013-.073-.022-.11.513-.276.956-.64 1.26-1.084.38-.553 1.196-1.973.59-3.23-.113-.233-.393-.33-.626-.22s-.33.394-.217.627c.273.565.08 1.422-.52 2.292-.344.502-.96.908-1.65 1.085-.7.18-1.366.1-1.83-.217a.466.466 0 0 0-.535.004c-.017.01-1.666 1.173-2.952 1.944a.903.903 0 0 1-.76.09c-.727-.213-1.524-1.137-1.906-1.9-.308-.617.007-.91.15-1.016 3.233-2.79 4.854-5.69 4.92-5.813a.473.473 0 0 0 .035-.373 18.292 18.292 0 0 1-.507-1.906c.98.592 2.667 1.417 4.423 1.417 2.44 0 8.117.91 8.117 9.352 0 .045-.008 4.634-1.847 9.68a.47.47 0 0 0 .88.32c1.896-5.2 1.905-9.81 1.904-10.003C19.69 2.64 12.76 1.9 10.636 1.9c-2.352 0-4.7-1.785-4.72-1.804C5.77-.012 5.58-.03 5.42.048s-.26.242-.26.42c0 .92.435 2.407.605 2.95-.392.654-1.937 3.076-4.567 5.35zM16.39 1.443C14.892.432 13.212 0 10.782 0a.47.47 0 0 0 0 .938c2.23 0 3.752.383 5.087 1.283 2.168 1.465 4.755 4.383 4.755 9.968 0 1.36 0 3.223-.923 6.918a.47.47 0 0 0 .91.227c.95-3.805.95-5.736.95-7.145 0-5.996-2.81-9.153-5.17-10.744z"/></svg><svg width="30" height="30" viewBox="0 0 30 30" x="240"><path fill="#fe504f" d="M22.5 0h-15a2.812 2.812 0 0 0-2.813 2.813v24.375A2.812 2.812 0 0 0 7.5 30h15a2.814 2.814 0 0 0 2.813-2.812V2.813A2.813 2.813 0 0 0 22.5 0zm.938 27.188a.94.94 0 0 1-.938.938h-15a.937.937 0 0 1-.938-.938v-1.88h16.875v1.88zm0-2.817H6.563V5.626h16.875V24.37zm0-19.682H6.563V2.813c0-.518.42-.938.938-.938h15a.94.94 0 0 1 .94.938v1.875zM16.875 3.28c0 .26-.21.47-.47.47h-2.812c-.26 0-.47-.21-.47-.47s.21-.468.47-.468h2.813c.258 0 .47.21.47.47zm-.937 23.435a.47.47 0 0 1-.47.47h-.937a.468.468 0 0 1 0-.938h.94c.257 0 .468.208.468.468z"/></svg><svg width="30" height="30" viewBox="0 0 30 30" x="320"><path fill="#fe504f" d="M29.452 9.924L20.077.55a1.875 1.875 0 0 0-3.118.77c-.426 1.377-1.16 2.574-2.246 3.66-1.45 1.45-3.34 2.55-5.34 3.71-2.123 1.23-4.316 2.506-6.113 4.302-1.526 1.53-2.566 3.23-3.175 5.204a1.88 1.88 0 0 0 .465 1.88l9.375 9.376a1.876 1.876 0 0 0 3.12-.773c.425-1.378 1.16-2.575 2.246-3.66 1.45-1.45 3.34-2.548 5.342-3.71 2.12-1.23 4.314-2.506 6.11-4.302 1.528-1.527 2.568-3.23 3.178-5.204a1.88 1.88 0 0 0-.466-1.88zm-18.202 18.2L1.875 18.75C4.54 10.124 16.087 10.5 18.75 1.875l9.377 9.375c-2.665 8.624-14.213 8.25-16.877 16.875zm7.09-14.155c-.307-.257-.614-.43-.923-.518a2.68 2.68 0 0 0-.926-.098 3.303 3.303 0 0 0-.936.215 12.88 12.88 0 0 0-.95.41 54.187 54.187 0 0 0-1.51-1.68c.226-.206.446-.31.658-.318.213-.01.417.013.61.062.2.05.38.092.547.125a.502.502 0 0 0 .442-.113.62.62 0 0 0 .22-.452c.01-.185-.06-.365-.214-.54a1.208 1.208 0 0 0-.722-.415 2.216 2.216 0 0 0-.872.02c-.296.067-.578.18-.846.337s-.482.32-.64.476l-.184-.172a.35.35 0 0 0-.253-.093.326.326 0 0 0-.255.125.34.34 0 0 0-.086.267c.008.1.05.176.118.235.06.052.122.102.183.156-.24.29-.437.61-.592.948-.157.338-.25.674-.286 1-.037.327-.002.627.098.906.1.28.286.518.557.743.442.367.96.522 1.564.487.602-.037 1.25-.216 1.946-.59.553.64 1.108 1.274 1.662 1.864-.234.198-.44.31-.62.348a.974.974 0 0 1-.49-.01 1.577 1.577 0 0 1-.406-.195 2.887 2.887 0 0 0-.37-.218c-.12-.06-.246-.094-.373-.096s-.264.06-.414.188c-.154.134-.23.29-.23.465s.08.35.237.53c.16.18.367.33.617.45s.533.193.845.214c.31.022.64-.025.985-.154.348-.127.692-.355 1.03-.696.164.16.33.31.493.457.07.06.154.09.256.083a.342.342 0 0 0 .252-.132c.07-.083.098-.176.088-.274s-.05-.174-.117-.23c-.165-.13-.33-.27-.494-.416.28-.344.504-.707.67-1.066.168-.36.266-.71.3-1.03a1.838 1.838 0 0 0-.113-.883c-.105-.268-.292-.5-.56-.72zm-5.242.634a.91.91 0 0 1-.7-.273.692.692 0 0 1-.182-.3.948.948 0 0 1-.037-.393c.012-.14.054-.288.127-.436a1.77 1.77 0 0 1 .304-.44c.476.474.95.992 1.426 1.528-.36.198-.673.304-.938.315zm4.422 1.877c-.084.157-.18.295-.294.416a38.516 38.516 0 0 1-1.575-1.712c.135-.06.276-.123.428-.187s.304-.106.456-.132c.156-.023.31-.017.463.02.152.038.296.12.43.25.132.133.216.27.25.418.036.15.037.302.012.457a1.49 1.49 0 0 1-.17.47zm-3.723 4.314a.47.47 0 0 1 .626.696c-.015.015-.03.025-.048.038l.002.002c-.593.45-1.08.857-1.607 1.383-.475.474-.905.974-1.276 1.48l-.6.82a.446.446 0 0 1-.068.095.473.473 0 0 1-.666 0 .473.473 0 0 1-.062-.588l-.002-.002.64-.876c.4-.547.862-1.084 1.37-1.593a16.806 16.806 0 0 1 1.69-1.457zm3.432-13.56c.473-.475.902-.973 1.274-1.483l.623-.852a.537.537 0 0 1 .082-.115.47.47 0 0 1 .69.64l.002.003-.64.88c-.402.546-.862 1.08-1.37 1.59-.53.53-1.102 1.006-1.688 1.456L16.2 9.35a.474.474 0 1 1-.545-.764c.55-.42 1.083-.862 1.573-1.353z"/></svg><svg width="30" height="30" viewBox="0 0 30 30" y="80"><path fill="#fe504f" d="M3.75 7.5h22.5V20h2.5V5H1.25v15h2.5V7.5zM20 21.25c-.24.503-1.43.906-2.5 1.108v.143h-5v-.142c-1.07-.2-2.26-.605-2.5-1.108H0v1.25C0 23.875 3.75 25 3.75 25h22.5S30 23.875 30 22.5v-1.25H20zm5 2.5h-1.25V22.5H25v1.25z"/></svg><svg width="30" height="30" viewBox="0 0 30 30" y="160"><path fill="#fe504f" d="M13.125 16.875V3.75C5.875 3.75 0 9.626 0 16.875S5.876 30 13.125 30 26.25 24.124 26.25 16.875c0-2.11-.5-4.104-1.384-5.87l-11.74 5.87zm13.616-9.62C24.587 2.952 20.14 0 15 0v13.125l11.74-5.87z"/></svg><svg width="30" height="30" viewBox="0 0 30 30" x="80" y="160"><path fill="#fe504f" d="M15 1.875c8.284 0 15 6.716 15 15C30 22.523 26.878 27.44 22.265 30H7.735C3.12 27.44-.002 22.523-.002 16.875c0-8.284 6.715-15 15-15zm8.494 23.494a11.932 11.932 0 0 0 3.518-8.495h-2.637V15h2.49a11.884 11.884 0 0 0-1.246-3.75H22.5V9.375h1.883a12.25 12.25 0 0 0-.89-.994 11.96 11.96 0 0 0-4.744-2.923V7.5h-1.876V5.007a12.15 12.15 0 0 0-3.75 0v2.49H11.25V5.46c-1.77.578-3.39 1.57-4.745 2.923-.317.318-.613.65-.89.995h1.883v1.875h-3.12A11.884 11.884 0 0 0 3.133 15h2.49v1.875H2.987c0 3.208 1.25 6.225 3.518 8.494.314.313.642.606.983.88h5.635l1.07-15H15.8l1.07 15h5.636c.34-.274.67-.568.983-.88z"/></svg></svg>