<svg xmlns="http://www.w3.org/2000/svg" xmlns:xlink="http://www.w3.org/1999/xlink" width="291" height="20" viewBox="0 0 291 20"><svg width="20" height="20" viewBox="0 0 20 20"><path fill="#fe504f" d="M3.895 6.975v11.06H.212V6.975h3.683zM4.13 3.56q.01.815-.565 1.362t-1.512.547H2.03q-.914 0-1.472-.548T0 3.56q0-.826.575-1.367t1.5-.54 1.485.54.57 1.367zm13.013 8.136v6.34H13.47V12.12q0-1.172-.45-1.836t-1.413-.664q-.703 0-1.177.385t-.71.954q-.122.334-.122.903v6.172H5.926q.022-4.453.022-7.22t-.01-3.305l-.012-.536h3.672V8.58h-.022q.223-.356.458-.624t.63-.58.972-.485 1.278-.172q1.908 0 3.07 1.267t1.16 3.71z"/></svg><svg width="19" height="20" viewBox="0 0 19 20" x="70"><path fill="#fe504f" d="M18.08 4.554q-.748 1.094-1.808 1.864.01.156.01.47 0 1.45-.423 2.895t-1.29 2.773-2.06 2.35-2.878 1.628-3.605.608q-3.025 0-5.536-1.618.392.045.872.045 2.51 0 4.475-1.54-1.172-.023-2.098-.72t-1.273-1.78q.368.055.68.055.48 0 .95-.123-1.25-.257-2.07-1.244t-.82-2.294V7.88q.76.423 1.63.457-.738-.49-1.173-1.283t-.435-1.72q0-.98.49-1.818Q3.07 5.18 5.007 6.178t4.146 1.11q-.09-.424-.09-.826 0-1.496 1.056-2.55t2.55-1.055q1.562 0 2.633 1.138 1.217-.234 2.288-.87-.412 1.282-1.584 1.986 1.038-.11 2.076-.557z"/></svg><svg width="20" height="20" viewBox="0 0 20 20" x="140"><path fill="#fe504f" d="M10.837 13.884v2.355q0 .747-.435.747-.257 0-.502-.246v-3.358q.246-.246.502-.246.435 0 .435.748zm3.772.01v.514h-1.005v-.513q0-.76.502-.76t.502.76zM3.827 11.463h1.194v-1.05H1.54v1.05h1.172v6.35h1.116v-6.35zm3.214 6.35h.993V12.3h-.993v4.22q-.335.468-.636.468-.2 0-.234-.234-.01-.033-.01-.39V12.3h-.994v4.364q0 .547.09.815.133.412.646.412.536 0 1.138-.68v.602zm4.788-1.65v-2.2q0-.815-.1-1.105-.19-.625-.792-.625-.558 0-1.038.603v-2.422h-.993v7.4H9.9v-.536q.502.614 1.038.614.603 0 .792-.613.1-.3.1-1.116zm3.773-.113v-.146h-1.016q0 .57-.022.68-.078.403-.446.403-.514 0-.514-.77v-.97h1.998v-1.15q0-.883-.3-1.296-.436-.568-1.184-.568-.76 0-1.194.57-.313.412-.313 1.294v1.93q0 .883.324 1.296.435.57 1.205.57.804 0 1.205-.593.2-.302.234-.604.023-.1.023-.647zM8.817 5.86V3.514q0-.77-.48-.77t-.48.77V5.86q0 .78.48.78t.48-.78zm8.025 8.38q0 2.613-.29 3.907-.156.658-.647 1.105t-1.138.513Q12.713 20 8.573 20t-6.194-.235q-.648-.067-1.145-.513t-.642-1.105q-.29-1.25-.29-3.906 0-2.61.29-3.905.156-.658.647-1.105t1.15-.525q2.042-.223 6.183-.223t6.194.223q.647.078 1.144.525t.643 1.105q.29 1.25.29 3.906zM5.702 0h1.14L5.49 4.453v3.025H4.374V4.453q-.156-.826-.68-2.366Q3.28.937 2.968 0H4.15l.792 2.935zm4.13 3.717V5.67q0 .904-.312 1.317-.413.57-1.183.57-.748 0-1.172-.57-.313-.424-.313-1.317V3.717q0-.893.313-1.306.424-.568 1.172-.568.77 0 1.183.57.313.412.313 1.305zm3.74-1.81v5.57h-1.017v-.614q-.592.692-1.15.692-.513 0-.658-.413-.09-.268-.09-.837V1.908h1.017v4.096q0 .368.01.39.034.247.235.247.3 0 .635-.48V1.91h1.016z"/></svg><svg width="11" height="20" viewBox="0 0 11 20" x="210"><path fill="#fe504f" d="M10.703.134V3.08H8.95q-.96 0-1.294.402T7.32 4.687v2.11h3.27l-.434 3.303H7.32v8.47H3.907V10.1H1.06V6.796h2.846V4.363q0-2.076 1.16-3.22T8.16 0q1.64 0 2.544.133z"/></svg></svg>